<?xml version="1.0" encoding="utf-8"?>
<!-- Generator: Adobe Illustrator 17.1.0, SVG Export Plug-In . SVG Version: 6.00 Build 0)  -->
<!DOCTYPE svg PUBLIC "-//W3C//DTD SVG 1.1//EN" "http://www.w3.org/Graphics/SVG/1.1/DTD/svg11.dtd">
<svg version="1.1" id="Layer_1" xmlns="http://www.w3.org/2000/svg" xmlns:xlink="http://www.w3.org/1999/xlink" x="0px" y="0px"
	 viewBox="0 0 246.5 81.638" enable-background="new 0 0 246.5 81.638" xml:space="preserve">
<defs>
	<style type= "text/css">@import url(http://fonts.googleapis.com/css?family=Quicksand:700);</style>
</defs>
<rect x="179.777" y="39.674" fill="none" width="67.565" height="14.667"/>
<text transform="matrix(1 0 0 1 179.7768 45.274)" fill="#ED1C24" font-family="'Quicksand', sans-serif" font-size="8">Cambridge, MA</text>
<text transform="matrix(1.2591 0 0 1 34.5783 24.3256)"><tspan x="0" y="0" fill="#231F20" font-family="'Courier'" font-size="33" letter-spacing="-0.794">U</tspan><tspan x="18.43" y="0" fill="#231F20" font-family="'Courier'" font-size="33" letter-spacing="1.588">A</tspan><tspan x="39.336" y="0" fill="#231F20" font-family="'Courier'" font-size="33" letter-spacing="-0.794">DR</tspan><tspan x="76.197" y="0" fill="#231F20" font-family="'Courier'" font-size="33">U</tspan><tspan x="95.452" y="0" fill="#231F20" font-family="'Courier'" font-size="33" letter-spacing="-1.588">P</tspan><tspan x="113.057" y="0" fill="#231F20" font-family="'Courier'" font-size="33">E</tspan><tspan x="132.312" y="0" fill="#231F20" font-family="'Courier'" font-size="33" letter-spacing="-2.383">D</tspan><tspan x="148.598" y="0" fill="#231F20" font-family="'Courier'" font-size="33">S</tspan></text>
<circle fill="none" stroke="#231F20" stroke-width="2.25" stroke-miterlimit="10" cx="18.958" cy="19.695" r="14.621"/>
<path stroke="#FFFFFF" stroke-width="0.5" stroke-linecap="round" stroke-linejoin="round" stroke-miterlimit="10" d="
	M112.145,60.993c-0.521,2.245-0.461,5.246-1.199,7.031c-0.659,1.594-0.906,2.784-3.091,3.738c-1.757,0.486-3.3-0.479-3.054-0.927
	c0.26-0.303,0.599-0.265,1.167-0.069c0.501,0.173,1.341-0.043,1.979-0.614c0.934-0.835,1.862-3.466,1.94-7.762
	c-0.043-3.295,1.488-7.068,3.883-7.13c0,0,1.753-0.227,1.882,0.502c0,0-1.166,1.02-1.475,2.409
	C114.1,58.517,112.926,57.629,112.145,60.993z"/>
<path stroke="#FFFFFF" stroke-width="0.5" stroke-linecap="round" stroke-linejoin="round" stroke-miterlimit="10" d="
	M144.367,70.87c-0.782,0.729-1.344,1.035-2.621,2.006c-2.392,1.32-3.088,3.289-5.867,2.385c-0.802-0.378-2.552-0.823-2.552-0.823
	c-0.547-0.676,0.931-1.999,1.959-1.613c2.048,1.037,2.019,0.322,4.092-1.529c0,0,1.512-1.434,2.027-1.998
	c0.506-0.516,0.532-3.305,1.662-6.147C143.993,67.386,145.485,70.01,144.367,70.87z"/>
<path stroke="#FFFFFF" stroke-width="0.5" stroke-linecap="round" stroke-linejoin="round" stroke-miterlimit="10" d="
	M120.167,65.612c1.103,1.43,1.447,2.03,1.632,3.645c-0.097,0.699-0.224,1.394-0.349,2.09c-0.121,0.671,0.142,1.173,0.611,1.724
	c1.893,2.228,1.263,1.449,2.655,3.173c1.002,1.18,1.723,1.423,2.182,1.346c0.71-0.215,1.281-0.432,1.771-0.631
	c0.682-0.277,0.084-0.905-0.46-1.179c-0.605-0.305-1.326,0.084-1.885-0.494c-0.514-0.569-0.884-1.167-1.206-1.685
	c-0.578-0.998-1.482-2.34,0.079-4.558c0.271-0.385,0.522-0.805,0.816-1.187c0.723-1.281,1.037-2.232,0.957-3.748
	c-0.027-0.501-0.183-0.779-0.66-0.81c-2.027-0.132-3.612,0.155-5.57,1.365C119.929,65.165,119.648,65.474,120.167,65.612z"/>
<path stroke="#FFFFFF" stroke-width="0.5" stroke-linecap="round" stroke-linejoin="round" stroke-miterlimit="10" d="
	M153.622,53.446c-0.006-0.708-0.061-1.183-0.923-1.375c-0.659-0.254-1.459-0.627-1.791-0.915c-0.496-0.432-0.869-1.572-1.278-2.073
	c-0.579-0.708-1.887-1.427-3.598-1.437c-2.457-0.014-3.699,1.079-4.853,2.643c-3.186,4.319-7.905,4.005-12.337,3.819
	c-3.551-0.149-4.745-0.598-7.077-0.594c-2.68-0.03-5.167,1.004-6.009,1.804c-1.189,1.128-1.888,3.3-2.046,4.626
	c-0.132,1.109,0.37,3.201-0.029,3.876c-0.722,1.224-0.747,2.042-0.811,3.479c-0.048,1.118-0.017,2.27-1.07,2.983
	c-1.019,0.69-0.708,1.33-0.868,2.416c-0.242,1.648-0.297,2.406-0.454,4.024c-0.133,1.062-0.02,1.784,1.114,1.861
	c0.209,0.014,1.076,0.018,1.525-0.012c1.436-0.089,0.742-1.279-0.464-1.772c-0.33-0.446-0.059-1.396,0.127-2.219
	c0.147-0.739-0.008-1.727,2.439-2.801c1.929-0.77,2.703-2.523,4.34-5.092c0.33-0.517,1.32-1.611,1.873-1.928
	c1.785-1.033,3.475-0.922,5.462-0.631c0.922,0.135,2.499,1.034,3.39,1.363c1.283,0.474,3.557,1.372,5.431,0.93
	c-0.811-1.765-0.04-3.295-0.04-3.295s-1.704,2.744,2.285,6.262c2.391,2.109,2.568,2.84,3.151,4.356
	c0.571,1.486,2.082,2.256,2.897,4.08c0.623,1.233,1.082,1.109,4.036,1.207c0.723,0.024,0.218-1.555-0.843-1.7
	c-0.348-0.048-0.95-0.15-2.057-1.806c-1.429-2.38-1.581-2.979-1.988-5.61c-0.1-1.652-0.91-2.149-0.059-4.381
	c0.736-1.654,0.991-2.088,1.3-3.018c0.546-1.645,0.302-2.776,0.629-3.701c0.393-0.957,1.101-2.241,2.65-2.619
	c0.855,0.012,1.673,0.066,2.774,0.008c1.31,0.025,2.642-0.621,2.443-1.424C153.207,54.47,153.627,53.953,153.622,53.446z"/>
<path stroke="#FFFFFF" stroke-width="0.5" stroke-linecap="round" stroke-linejoin="round" stroke-miterlimit="10" d="
	M145.522,50.58c0,0,0.422,1.561,0.016,2.889c-0.609,1.986-0.608,2.468-2.107,1.8c-1.02-0.455-1.155-1.504-2.564-3.371
	c-1.124-1.489,0.927-2.499,2.082-3.476"/>
<path fill="none" stroke="#E43325" stroke-width="2" stroke-linecap="round" stroke-linejoin="round" stroke-miterlimit="10" d="
	M22.168,24.273c19.105,51.217,87.875,0.06,114.214,28.565"/>
<path fill="#E43325" d="M144.025,60.565c-2.438,0-6.631-2.904-7.579-5.873c-0.126-0.395,0.092-0.816,0.486-0.942
	c0.396-0.128,0.817,0.092,0.942,0.486c0.78,2.443,4.458,4.829,6.15,4.829c0.414,0,0.75,0.336,0.75,0.75
	S144.439,60.565,144.025,60.565z"/>
<text transform="matrix(0.98 0 0 1 38.0627 35.7728)" fill="#58595B" font-family="'Quicksand', sans-serif" font-size="12.5">dog walking &amp; pet care services</text>
</svg>
